<svg width="569" height="89" viewBox="0 0 569 89" fill="none" xmlns="http://www.w3.org/2000/svg">
<path d="M0 44.2567C0 20.183 19.2405 0 43.0507 0C57.9621 0 70.9494 7.53823 78.8861 18.9672L63.7342 29.6666C59.4051 22.6147 52.6709 18.4808 44.0127 18.4808C29.8228 18.4808 19.481 30.1529 19.481 44.2567C19.481 58.3605 29.3418 70.5189 43.7722 70.5189C52.6709 70.5189 59.4051 66.385 63.7342 59.3332L78.8861 70.0326C71.1899 81.4615 57.9621 88.9997 43.0507 88.9997C19.2405 88.7566 0 68.5736 0 44.2567Z" fill="#FFF"/>
<path d="M84.9541 44.378C84.9541 19.9945 104.041 0 128.443 0C152.361 0 171.931 19.9945 171.931 44.378C171.931 68.7615 152.603 88.9997 128.443 88.9997C104.282 88.7559 84.9541 68.5176 84.9541 44.378ZM152.603 44.378C152.603 29.9917 142.939 18.2876 128.684 18.2876C114.43 18.2876 104.766 29.9917 104.766 44.378C104.766 58.7642 114.188 70.4683 128.684 70.4683C142.697 70.4683 152.603 58.5204 152.603 44.378Z" fill="#FFF"/>
<path d="M215.772 0C241.819 0 256.885 19.4135 256.885 44.6259C256.885 69.8383 241.819 88.9997 215.772 88.9997H180.022V0H215.772ZM215.772 71.3511C229.306 71.3511 236.201 58.4927 236.201 44.6259C236.201 30.7591 229.306 17.6487 215.772 17.6487H200.706V71.3511H215.772Z" fill="#FFF"/>
<path d="M288.015 71.3511H327.682V88.9997H267V0H326.368V17.6487H288.015V36.0537H321.64V54.2066H288.015V71.3511Z" fill="#FFF"/>
<path d="M366.691 71.3511H400.499V88.9997H345.886V0H366.691V71.3511Z" fill="#FFF"/>
<path d="M434.972 71.3511H473.316V88.9997H414.657V0H472.046V17.6487H434.972V36.0537H467.476V54.2066H434.972V71.3511Z" fill="#FFF"/>
<path d="M561.763 88.9997H544.543C540.127 88.9997 537.92 86.7293 537.92 82.1885V70.1554C537.92 69.0202 537.92 68.1121 537.257 67.2039L531.959 59.4845C531.738 59.2575 531.738 59.0304 531.517 59.0304H529.972C529.972 59.0304 529.751 59.2575 529.53 59.4845L524.453 67.2039C523.79 68.1121 523.79 69.0202 524.011 70.1554V82.1885C524.011 86.7293 521.803 88.9997 517.388 88.9997H500.168C495.753 88.9997 493.545 86.7293 493.545 82.1885V69.7013C493.545 61.7549 494.649 59.0304 498.402 53.8085L506.57 42.6836L498.402 31.5586C494.649 26.3367 493.545 23.8392 493.545 15.6658V6.81121C493.545 2.2704 495.753 0 500.168 0H517.609C522.024 0 524.232 2.2704 524.232 6.81121V15.2117C524.232 16.3469 524.232 17.4821 524.673 18.1632L529.751 25.6555C530.413 26.5637 530.413 26.5637 530.413 26.5637H531.738C531.959 26.5637 532.18 26.1096 532.18 25.8826L537.478 18.1632C538.14 17.2551 538.14 16.3469 537.92 15.2117V6.81121C537.92 2.2704 540.127 0 544.543 0H561.763C566.178 0 568.386 2.2704 568.386 6.81121V15.6658C568.386 23.6122 567.282 26.3367 563.529 31.5586L555.36 42.9106L563.529 54.0356C567.282 59.2575 568.386 61.7549 568.386 69.9284V82.4156C568.386 86.7294 566.178 88.9997 561.763 88.9997ZM530.193 55.1708H531.738C533.725 55.1708 534.608 56.306 535.491 57.6682L540.348 64.9335C541.673 66.7498 541.673 68.5661 541.673 70.1554V81.9615C541.673 84.2319 542.335 84.686 544.322 84.686H561.542C563.749 84.686 564.191 84.0049 564.191 81.9615V69.4743C564.191 62.436 563.308 60.3927 560.217 56.0789L550.503 42.6836L560.217 29.0611C563.529 24.5203 564.191 22.477 564.191 15.6658V6.81121C564.191 4.5408 563.529 4.08672 561.542 4.08672H544.322C542.114 4.08672 541.673 4.76784 541.673 6.81121V14.7576C541.673 16.3469 541.673 18.6173 540.348 20.4336L535.27 27.6989C534.387 29.0611 533.504 30.1963 531.517 30.1963H530.193C528.206 30.1963 527.102 28.8341 526.439 27.6989L521.583 20.4336C520.258 18.6173 520.258 16.3469 520.258 14.7576V6.81121C520.258 4.5408 519.596 4.08672 517.609 4.08672H500.168C497.96 4.08672 497.519 4.76784 497.519 6.81121V15.6658C497.519 22.704 498.402 24.7474 501.493 29.0611L511.206 42.4565L501.493 55.8519C498.181 60.3927 497.519 62.4361 497.519 69.2473V81.7345C497.519 84.0049 498.181 84.4589 500.168 84.4589H517.388C519.596 84.4589 520.037 83.7778 520.037 81.7345V69.7013C520.037 68.112 520.037 66.2957 521.362 64.4794L526.439 57.2141C527.323 56.306 528.206 55.1708 530.193 55.1708ZM555.139 77.1937H551.386V70.6095C551.386 67.4309 551.386 64.7065 550.062 62.8901L537.257 44.4999H525.115L512.09 62.8901C510.765 64.7065 510.765 67.4309 510.765 70.6095V77.1937H506.791V69.9284C506.791 66.5228 506.791 63.5713 508.778 60.8468L521.803 42.6836L508.778 24.7474C506.791 22.0229 506.791 18.6173 506.791 14.9847V11.8061H510.544V14.9847C510.544 18.1632 510.544 20.8877 511.869 22.704L525.115 41.0943H537.257L550.062 22.9311C551.386 21.1147 551.386 18.3903 551.386 15.2117V12.0331H555.139V15.2117C555.139 18.8443 555.139 22.2499 553.153 24.9744L540.348 43.3647L553.153 61.3008C555.139 64.0253 555.139 67.4309 555.139 71.0636V77.1937Z" fill="#00fda3"/>
</svg>
